<?xml version="1.0" encoding="UTF-8"?><svg id="Layer_1" xmlns="http://www.w3.org/2000/svg" xmlns:xlink="http://www.w3.org/1999/xlink" viewBox="0 0 853.38 255.22"><defs><style>.cls-1{fill:#fff;}.cls-2{fill:#fbb111;}.cls-3{fill:#009393;}.cls-4{filter:url(#drop-shadow-1);}.cls-5{fill:#0e8388;}</style><filter id="drop-shadow-1" filterUnits="userSpaceOnUse"><feOffset dx="1" dy="1"/><feGaussianBlur result="blur" stdDeviation="0"/><feFlood flood-color="#000" flood-opacity=".75"/><feComposite in2="blur" operator="in"/><feComposite in="SourceGraphic"/></filter></defs><g class="cls-4"><path class="cls-5" d="m323.11,105.11h-22.77v-14.86h62.1v14.86h-22.77v59.96h-16.57v-59.96Z"/><path class="cls-5" d="m372.6,165.07v-74.82h16.57v74.82h-16.57Z"/><path class="cls-5" d="m457.89,138.88l-1.07-23.51v-25.12h16.78v74.82h-14.32l-37.19-47.88.64,24.58v23.3h-16.89v-74.82h14.32l37.73,48.63Z"/><path class="cls-5" d="m543.41,109.92c-4.6-4.38-11.54-6.63-17.53-6.63-14.22,0-23.51,8.12-23.51,24.48,0,10.69,5.88,24.05,23.51,24.05,5.24,0,10.15-.86,15.93-5.24v-11.97h-17.85v-13.89h32.28v32.6c-6.41,9.19-16.67,13.89-30.46,13.89-28.86,0-39.76-19.99-39.76-39.44,0-21.06,12.4-39.76,39.87-39.76,10.15,0,19.35,2.78,27.9,11.54l-10.37,10.37Z"/><path class="cls-2" d="m621.65,138.88l-1.07-23.51v-25.12h16.78v74.82h-14.32l-37.19-47.88.64,24.58v23.3h-16.89v-74.82h14.32l37.73,48.63Z"/><path class="cls-2" d="m711.01,165.07h-56.97v-74.82h55.47v15.28h-39.12v14.43h36.87v14.64h-36.87v15.07h40.61v15.39Z"/><path class="cls-2" d="m787.86,155.98c-7.7,7.59-17.64,11.01-28.75,11.01-28.54,0-39.87-18.38-39.97-38.8-.11-19.35,12.51-39.65,39.97-39.65,10.26,0,19.77,3.95,27.47,11.54l-10.47,10.37c-4.49-4.38-11.01-6.2-16.99-6.2-16.99,0-23.62,13.15-23.51,24.05.11,10.9,5.99,23.3,23.51,23.3,5.99,0,13.89-2.67,18.38-7.16l10.37,11.54Z"/><path class="cls-2" d="m814.05,105.11h-22.77v-14.86h62.1v14.86h-22.77v59.96h-16.57v-59.96Z"/></g><path class="cls-3" d="m127.73,255.22c70.55,0,127.73-57.13,127.73-127.61S198.28,0,127.73,0,0,57.13,0,127.61s57.19,127.61,127.73,127.61Z"/><path class="cls-1" d="m123.3,64.81l-13.7,54.03,22.41,71.56,13.37-52.93-22.08-72.66Zm.1.11h-24.02l-44.21,96.17,10.57,29.32,57.68-125.46v-.02Zm8.67,125.48h24.02l44.21-96.17-10.57-29.32-57.68,125.46v.02Z"/></svg>