<svg id="Layer_1" data-name="Layer 1" xmlns="http://www.w3.org/2000/svg" viewBox="0 0 1417.5 299.56"><defs><style>.cls-1{fill:#009090;}.cls-2{fill:#fff;}</style></defs><title>logo TingFoundation</title><path class="cls-1" d="M149.93,299.56c82.8,0,149.93-67.06,149.93-149.78S232.73,0,149.93,0,0,67.06,0,149.78,67.12,299.56,149.93,299.56Z"/><path class="cls-2" d="M215.34,109.21,149.93,43.87l-43.6,43.55L43.91,149.78l46.15,46.1,19.26,19.24,40.61,40.57,42.92-42.87.23-.23,19.12-19.1.14-.15,43.6-43.56-40.61-40.57ZM78.76,149.78,130,98.54l19.89-19.86,21.2,21.18,20.32,20.29-15.27,15.26L152.55,111.8l-55.9,55.85L78.76,149.78Zm71.17,71.1L108.41,179.4l15.53-15.51,41.52,41.48-15.53,15.51Zm25.81-25.79-41.51-41.48,15.7-17.18,26.69,24.85,29.65-28.14,14.83,16.63-45.35,45.31Z"/><path class="cls-1" d="M357.46,190.77V124.25H331.2V108.79h71.51v15.46H376.45v66.52Z"/><path class="cls-1" d="M412.91,190.77v-82H432v82Z"/><path class="cls-1" d="M526.62,108.79v82H510.91L470.12,141v49.74H451.36v-82h15.71l40.79,49.73V108.79Z"/><path class="cls-1" d="M601.53,148.49h17.35v33.26a48.34,48.34,0,0,1-15.59,7.79,60.84,60.84,0,0,1-17.58,2.64,50.3,50.3,0,0,1-17.94-3.11,40.83,40.83,0,0,1-23.5-22.31,44.83,44.83,0,0,1,0-34,40.37,40.37,0,0,1,9.43-13.47,42.76,42.76,0,0,1,14.3-8.84,54.49,54.49,0,0,1,37.7.52,39.1,39.1,0,0,1,14.71,10.55L608.33,132.8a30.39,30.39,0,0,0-9.85-7.09,28.9,28.9,0,0,0-11.6-2.28,29.28,29.28,0,0,0-10.79,1.93,25,25,0,0,0-8.49,5.45,24.07,24.07,0,0,0-5.51,8.31,28.33,28.33,0,0,0-1.94,10.66,27.47,27.47,0,0,0,1.94,10.48,24.07,24.07,0,0,0,5.51,8.38,25.91,25.91,0,0,0,8.43,5.5,28,28,0,0,0,10.73,2,32.11,32.11,0,0,0,11-1.87,27.72,27.72,0,0,0,3.81-1.67Z"/><path d="M700.48,124.51V109.18h-53V191h19.31v-33.4H692V142.7H666.84V124.51Z"/><path d="M750.5,108c-24,0-42.06,18-42.06,41.83s18.08,41.95,42.06,41.95,41.83-18,41.83-41.95S774.35,108,750.5,108Zm0,66.23c-13.52,0-22.27-9.58-22.27-24.4s8.75-24.38,22.27-24.38,22.15,9.57,22.15,24.38S764,174.23,750.5,174.23Z"/><path d="M853,109.18v49c0,10.18-5.31,15.8-15,15.8s-14.74-5.62-14.74-15.8v-49H803.93v48.89c0,20.79,12.92,33.71,33.72,33.71,21.05,0,34.65-13.23,34.65-33.71V109.18Z"/><path d="M940.94,109.18v52.09L906.7,109.18H887.19V191h19.33V139.12L940.76,191h19.5V109.18Z"/><path d="M1006.17,109.18H975.63V191h30.54c25.65,0,42.89-16.43,42.89-40.89S1031.82,109.18,1006.17,109.18Zm-1.3,65.16H995V125.56h9.92c15.35,0,24.51,9.17,24.51,24.51S1020.45,174.34,1004.87,174.34Z"/><path d="M1108.2,109.18h-22.73L1055.88,191h20.21l4.94-14.59h31.38l4.94,14.59h20.44Zm-22.15,52.46,10.66-31.86,10.79,31.86Z"/><path d="M1143.32,109.18v15.33h21.89V191h19.32V124.51h21.87V109.18Z"/><path d="M1217.29,109.18V191h19.33V109.18Z"/><path d="M1290.64,108c-24,0-42.06,18-42.06,41.83s18.09,41.95,42.06,41.95,41.83-18,41.83-41.95S1314.49,108,1290.64,108Zm0,66.23c-13.53,0-22.27-9.58-22.27-24.4s8.74-24.38,22.27-24.38,22.16,9.57,22.16,24.38S1304.1,174.23,1290.64,174.23Z"/><path d="M1398.17,109.18v52.09l-34.25-52.09h-19.49V191h19.31V139.12L1398,191h19.51V109.18Z"/></svg>