<?xml version="1.0" encoding="UTF-8"?><svg id="Layer_1" xmlns="http://www.w3.org/2000/svg" viewBox="0 0 1417.5 299.56"><defs><style>.cls-1{fill:#fff;}.cls-2{fill:#009090;}</style></defs><path class="cls-2" d="m149.93,299.56c82.8,0,149.93-67.06,149.93-149.78S232.73,0,149.93,0,0,67.06,0,149.78s67.12,149.78,149.93,149.78Z"/><path class="cls-1" d="m215.34,109.21l-65.41-65.34-43.6,43.55-62.41,62.35,46.14,46.1,19.27,19.24,40.61,40.57,42.92-42.87.23-.23,19.12-19.1.14-.15,43.6-43.56-40.61-40.57h0Zm-136.58,40.57l51.29-51.24,19.89-19.87,21.2,21.18,20.31,20.29-15.27,15.26-23.63-23.61-55.9,55.85-17.89-17.87h0Zm71.17,71.1l-41.52-41.48,15.53-15.51,41.52,41.48-15.52,15.51h0Zm25.82-25.79l-41.52-41.48,15.7-17.18,26.69,24.84,29.66-28.14,14.83,16.63-45.35,45.31h0Z"/><path class="cls-2" d="m357.46,190.77v-66.52h-26.26v-15.46h71.51v15.46h-26.26v66.52h-18.99Z"/><path class="cls-2" d="m412.91,190.77v-81.98h19.11v81.98h-19.11Z"/><path class="cls-2" d="m526.62,108.79v81.98h-15.71l-40.8-49.74v49.74h-18.76v-81.98h15.71l40.8,49.73v-49.73h18.76Z"/><path class="cls-2" d="m601.53,148.49h17.35v33.26c-4.53,3.44-9.73,6.03-15.59,7.79-5.86,1.76-11.73,2.63-17.59,2.63-6.49,0-12.47-1.03-17.93-3.1-5.47-2.07-10.2-5.02-14.19-8.84-3.99-3.83-7.09-8.32-9.32-13.47-2.23-5.15-3.34-10.81-3.34-16.98s1.11-11.83,3.34-16.98c2.23-5.15,5.37-9.64,9.44-13.47,4.07-3.82,8.83-6.77,14.3-8.84,5.47-2.07,11.49-3.1,18.06-3.1,7.27,0,13.81,1.21,19.63,3.63,5.82,2.42,10.73,5.93,14.71,10.54l-12.08,11.24c-3.05-3.2-6.33-5.56-9.85-7.08-3.52-1.52-7.38-2.28-11.6-2.28-3.91,0-7.5.65-10.79,1.93-3.28,1.29-6.11,3.1-8.5,5.45-2.39,2.34-4.22,5.11-5.51,8.31-1.29,3.2-1.94,6.75-1.94,10.66s.65,7.24,1.94,10.48c1.29,3.24,3.12,6.03,5.51,8.37,2.38,2.34,5.2,4.18,8.44,5.51,3.25,1.33,6.82,1.99,10.73,1.99s7.41-.62,10.96-1.87c1.28-.45,2.55-1.01,3.81-1.67v-24.09Z"/><path class="cls-1" d="m700.48,124.51v-15.33h-52.96v81.78h19.32v-33.4h25.18v-14.85h-25.18v-18.19h33.64Z"/><path class="cls-1" d="m750.5,108c-23.98,0-42.07,17.99-42.07,41.83s18.08,41.95,42.07,41.95,41.83-18.03,41.83-41.95-17.98-41.83-41.83-41.83Zm0,66.22c-13.53,0-22.27-9.58-22.27-24.39s8.74-24.39,22.27-24.39,22.15,9.57,22.15,24.39-8.69,24.39-22.15,24.39Z"/><path class="cls-1" d="m852.97,109.18v49.01c0,10.19-5.31,15.8-14.97,15.8s-14.74-5.61-14.74-15.8v-49.01h-19.32v48.89c0,20.79,12.92,33.71,33.71,33.71s34.65-13.24,34.65-33.71v-48.89h-19.32Z"/><path class="cls-1" d="m940.94,109.18v52.09l-34.24-52.09h-19.51v81.78h19.32v-51.84l34.24,51.84h19.51v-81.78h-19.32Z"/><path class="cls-1" d="m1006.17,109.18h-30.54v81.78h30.54c25.65,0,42.89-16.43,42.89-40.89s-17.24-40.89-42.89-40.89Zm-1.3,65.17h-9.92v-48.78h9.92c15.34,0,24.5,9.16,24.5,24.5s-8.93,24.28-24.5,24.28Z"/><path class="cls-1" d="m1108.2,109.18h-22.74l-29.59,81.78h20.21l4.94-14.59h31.37l4.94,14.59h20.45l-29.59-81.78Zm-22.15,52.46l10.66-31.86,10.79,31.86h-21.45Z"/><path class="cls-1" d="m1143.32,109.18v15.33h21.88v66.45h19.32v-66.45h21.87v-15.33h-63.08Z"/><path class="cls-1" d="m1217.29,109.18v81.78h19.32v-81.78h-19.32Z"/><path class="cls-1" d="m1290.64,108c-23.98,0-42.06,17.99-42.06,41.83s18.08,41.95,42.06,41.95,41.83-18.03,41.83-41.95-17.98-41.83-41.83-41.83Zm0,66.22c-13.53,0-22.27-9.58-22.27-24.39s8.74-24.39,22.27-24.39,22.16,9.57,22.16,24.39-8.7,24.39-22.16,24.39Z"/><path class="cls-1" d="m1398.17,109.18v52.09l-34.25-52.09h-19.5v81.78h19.32v-51.84l34.25,51.84h19.51v-81.78h-19.32Z"/></svg>