<?xml version="1.0" encoding="UTF-8"?><svg id="Layer_1" xmlns="http://www.w3.org/2000/svg" viewBox="0 0 299.86 299.56"><defs><style>.cls-1{fill:#fff;}.cls-2{fill:#009090;}</style></defs><path class="cls-2" d="m149.93,299.56c82.8,0,149.93-67.06,149.93-149.78S232.73,0,149.93,0,0,67.06,0,149.78s67.12,149.78,149.93,149.78Z"/><path class="cls-1" d="m215.34,109.21l-65.41-65.34-43.6,43.55-62.41,62.35,46.14,46.1,19.27,19.24,40.61,40.57,42.92-42.87.23-.23,19.12-19.1.14-.15,43.6-43.56-40.61-40.57h0Zm-136.58,40.57l51.29-51.24,19.89-19.87,21.2,21.18,20.31,20.29-15.27,15.26-23.63-23.61-55.9,55.85-17.89-17.87h0Zm71.17,71.1l-41.52-41.48,15.53-15.51,41.52,41.48-15.52,15.51h0Zm25.82-25.79l-41.52-41.48,15.7-17.18,26.69,24.84,29.66-28.14,14.83,16.63-45.35,45.31h0Z"/></svg>